<svg width="62" height="62" viewBox="0 0 62 62" fill="none" xmlns="http://www.w3.org/2000/svg">
<path d="M31 13.6915V55.1022C30.5608 55.1022 30.0958 55.0247 29.7342 54.818L29.6308 54.7663C24.6708 52.0539 16.0167 49.2122 10.4108 48.463L9.66166 48.3597C7.18166 48.0497 5.16666 45.7247 5.16666 43.2447V12.0381C5.16666 8.96396 7.67249 6.63896 10.7467 6.8973C16.1717 7.33646 24.3867 10.0748 28.985 12.9423L29.6308 13.3298C30.0183 13.5623 30.5092 13.6915 31 13.6915Z" fill="#E2E2E2"/>
<path d="M56.8333 12.0642V43.245C56.8333 45.725 54.8183 48.0499 52.3383 48.36L51.4858 48.4633C45.8542 49.2125 37.1742 52.08 32.2142 54.8183C31.8783 55.025 31.465 55.1025 31 55.1025V13.6917C31.4908 13.6917 31.9817 13.5625 32.3692 13.33L32.8083 13.0459C37.4067 10.1525 45.6475 7.38837 51.0725 6.92337H51.2275C54.3017 6.66503 56.8333 8.9642 56.8333 12.0642Z" fill="#4A9568"/>
<path d="M20.0208 23.87H14.2083C13.1492 23.87 12.2708 22.9917 12.2708 21.9325C12.2708 20.8733 13.1492 19.995 14.2083 19.995H20.0208C21.08 19.995 21.9583 20.8733 21.9583 21.9325C21.9583 22.9917 21.08 23.87 20.0208 23.87Z" fill="#1B1B1B"/>
<path d="M21.9583 31.62H14.2083C13.1492 31.62 12.2708 30.7417 12.2708 29.6825C12.2708 28.6233 13.1492 27.745 14.2083 27.745H21.9583C23.0175 27.745 23.8958 28.6233 23.8958 29.6825C23.8958 30.7417 23.0175 31.62 21.9583 31.62Z" fill="#1B1B1B"/>
</svg>
