<svg width="62" height="62" viewBox="0 0 62 62" fill="none" xmlns="http://www.w3.org/2000/svg">
<path d="M54.4802 18.0317C52.2843 15.6034 48.616 14.3892 43.2943 14.3892H42.6743V14.2859C42.6743 9.9459 42.6743 4.57257 32.961 4.57257H29.0343C19.3209 4.57257 19.3209 9.97174 19.3209 14.2859V14.4151H18.7009C13.3534 14.4151 9.7109 15.6292 7.51507 18.0576C4.95757 20.8992 5.03507 24.7226 5.2934 27.3317L5.31924 27.5125L5.57757 30.225C5.6034 30.2508 5.65507 30.3025 5.70674 30.3284C6.55924 30.8967 7.43757 31.465 8.36757 31.9817C8.72924 32.2142 9.11674 32.4209 9.50424 32.6275C13.9217 35.0559 18.7784 36.6834 23.7126 37.4842C23.9451 39.9125 25.0042 42.7542 30.6618 42.7542C36.3193 42.7542 37.4302 39.9384 37.611 37.4325C42.881 36.58 47.9702 34.7459 52.5685 32.0592C52.7235 31.9817 52.8268 31.9042 52.956 31.8267C54.1443 31.155 55.2552 30.4317 56.3402 29.6309C56.3918 29.605 56.4435 29.5534 56.4693 29.5017L56.5727 28.5717L56.7018 27.3575C56.7277 27.2025 56.7277 27.0734 56.7535 26.8925C56.9602 24.2834 56.9085 20.7184 54.4802 18.0317ZM33.8135 35.7275C33.8135 38.4659 33.8135 38.8792 30.636 38.8792C27.4585 38.8792 27.4585 38.3884 27.4585 35.7534V32.4984H33.8135V35.7275ZM23.0151 14.3892V14.2859C23.0151 9.89424 23.0151 8.26674 29.0343 8.26674H32.961C38.9802 8.26674 38.9802 9.92007 38.9802 14.2859V14.4151H23.0151V14.3892Z" fill="#7DCA9C"/>
<path d="M52.9589 31.7748C52.8297 31.8523 52.7005 31.9298 52.5714 32.0073C47.973 34.6939 42.8839 36.5023 37.6138 37.3806C37.4072 39.8606 36.3222 42.7023 30.6647 42.7023C25.0071 42.7023 23.9221 39.8864 23.7154 37.4323C18.7812 36.6573 13.9246 35.0298 9.50708 32.5756C9.11958 32.3689 8.73208 32.1623 8.37041 31.9298C7.44041 31.4131 6.56208 30.8448 5.70958 30.2764C5.65791 30.2506 5.60625 30.1989 5.58041 30.1731L7.15625 46.9906C7.69875 52.1314 9.81708 57.4273 21.1837 57.4273H40.8689C52.2355 57.4273 54.3539 52.1314 54.8964 46.9648L56.5238 29.4498C56.498 29.5014 56.4464 29.5531 56.3947 29.5789C55.2838 30.3798 54.1472 31.1289 52.9589 31.7748Z" fill="#DFDFDF"/>
</svg>
