<svg width="62" height="62" viewBox="0 0 62 62" fill="none" xmlns="http://www.w3.org/2000/svg">
<path d="M54.4802 18.0317C52.2843 15.6033 48.616 14.3892 43.2943 14.3892H42.6743V14.2858C42.6743 9.94584 42.6743 4.57251 32.961 4.57251H29.0343C19.3209 4.57251 19.3209 9.97168 19.3209 14.2858V14.415H18.7009C13.3534 14.415 9.7109 15.6292 7.51507 18.0575C4.95757 20.8992 5.03507 24.7225 5.2934 27.3316L5.31924 27.5125L5.57757 30.225C5.6034 30.2508 5.65507 30.3025 5.70674 30.3283C6.55924 30.8966 7.43757 31.465 8.36757 31.9816C8.72924 32.2141 9.11674 32.4208 9.50424 32.6275C13.9217 35.0558 18.7784 36.6833 23.7126 37.4841C23.9451 39.9125 25.0042 42.7541 30.6618 42.7541C36.3193 42.7541 37.4302 39.9383 37.611 37.4325C42.881 36.58 47.9702 34.7458 52.5685 32.0591C52.7235 31.9816 52.8268 31.9041 52.956 31.8266C54.1443 31.155 55.2552 30.4316 56.3402 29.6308C56.3918 29.605 56.4435 29.5533 56.4693 29.5016L56.5727 28.5716L56.7018 27.3575C56.7277 27.2025 56.7277 27.0733 56.7535 26.8925C56.9602 24.2833 56.9085 20.7183 54.4802 18.0317ZM33.8135 35.7275C33.8135 38.4658 33.8135 38.8791 30.636 38.8791C27.4585 38.8791 27.4585 38.3883 27.4585 35.7533V32.4983H33.8135V35.7275ZM23.0151 14.3892V14.2858C23.0151 9.89418 23.0151 8.26668 29.0343 8.26668H32.961C38.9802 8.26668 38.9802 9.92001 38.9802 14.2858V14.415H23.0151V14.3892Z" fill="#2D895C"/>
<path d="M52.9588 31.7747C52.8297 31.8522 52.7005 31.9297 52.5714 32.0072C47.973 34.6939 42.8838 36.5022 37.6138 37.3805C37.4072 39.8605 36.3222 42.7022 30.6647 42.7022C25.0071 42.7022 23.9221 39.8864 23.7154 37.4322C18.7812 36.6572 13.9246 35.0297 9.50708 32.5755C9.11958 32.3689 8.73208 32.1622 8.37041 31.9297C7.44041 31.413 6.56208 30.8447 5.70958 30.2764C5.65791 30.2505 5.60625 30.1989 5.58041 30.173L7.15625 46.9905C7.69875 52.1314 9.81708 57.4272 21.1837 57.4272H40.8688C52.2355 57.4272 54.3538 52.1314 54.8963 46.9647L56.5238 29.4497C56.498 29.5014 56.4463 29.553 56.3947 29.5789C55.2838 30.3797 54.1472 31.1289 52.9588 31.7747Z" fill="#E2E2E2"/>
</svg>
