<svg width="62" height="62" viewBox="0 0 62 62" fill="none" xmlns="http://www.w3.org/2000/svg">
<path d="M49.6276 16.43C46.941 11.005 41.7485 7.00086 35.7293 5.68336C29.426 4.28836 22.9676 5.78669 18.0335 9.76503C13.0735 13.7175 10.2576 19.6334 10.2576 25.9625C10.2576 32.6533 14.2618 39.6542 20.3068 43.71V45.8542C20.281 46.5775 20.2551 47.6883 21.1335 48.5925C22.0376 49.5225 23.381 49.6258 24.4401 49.6258H37.6926C39.0876 49.6258 40.1468 49.2383 40.8701 48.515C41.8518 47.5075 41.826 46.2158 41.8001 45.5183V43.71C49.8085 38.3108 54.846 26.9183 49.6276 16.43Z" fill="#4A9568"/>
<path d="M39.4196 56.8331C39.2646 56.8331 39.0838 56.8073 38.9288 56.7556C33.7363 55.2831 28.2854 55.2831 23.0929 56.7556C22.137 57.014 21.1295 56.4715 20.8712 55.5156C20.587 54.5598 21.1554 53.5523 22.1112 53.294C27.9496 51.6406 34.0979 51.6406 39.9363 53.294C40.8921 53.5781 41.4604 54.5598 41.1763 55.5156C40.9179 56.3165 40.1946 56.8331 39.4196 56.8331Z" fill="#424242"/>
</svg>
