<svg width="62" height="62" viewBox="0 0 62 62" fill="none" xmlns="http://www.w3.org/2000/svg">
<path d="M13.7669 50.1683C13.4828 50.1683 13.1728 50.0908 12.9144 49.9616L7.17944 47.0941C6.5336 46.7583 6.12027 46.0866 6.12027 45.3633V38.1816C6.12027 37.1225 6.9986 36.2441 8.05777 36.2441C9.11694 36.2441 9.99527 37.1225 9.99527 38.1816V44.1491L14.6711 46.4741C15.6269 46.965 16.0144 48.1275 15.5494 49.0833C15.1619 49.755 14.4903 50.1683 13.7669 50.1683Z" fill="#424242"/>
<path d="M30.9987 58.7708C30.8437 58.7708 30.6887 58.7449 30.5595 58.7191C30.4045 58.6933 30.2495 58.6158 30.0945 58.5383L24.3853 55.6966C23.4295 55.2058 23.042 54.0433 23.507 53.0874C23.9978 52.1316 25.1603 51.7441 26.1162 52.2091L29.0612 53.6816V49.6516C29.0612 48.5924 29.9395 47.7141 30.9987 47.7141C32.0579 47.7141 32.9362 48.5924 32.9362 49.6516V53.6816L35.8812 52.2091C36.837 51.7441 37.9995 52.1316 38.4904 53.0874C38.9812 54.0433 38.5937 55.2058 37.612 55.6966L31.9029 58.5383C31.7479 58.6158 31.5929 58.6674 31.4379 58.7191C31.2829 58.7449 31.1537 58.7708 30.9987 58.7708Z" fill="#2D895C"/>
<path d="M48.2314 50.1684C47.5339 50.1684 46.8364 49.7809 46.5005 49.1092C46.0097 48.1534 46.3972 46.9909 47.3789 46.5L52.0547 44.1753V38.2075C52.0547 37.1484 52.933 36.27 53.9922 36.27C55.0514 36.27 55.9297 37.1484 55.9297 38.2075V45.3894C55.9297 46.1128 55.5164 46.7844 54.8705 47.1203L49.1355 49.9878C48.7997 50.0911 48.5155 50.1684 48.2314 50.1684Z" fill="#424242"/>
<path d="M30.9987 37.2517C29.9395 37.2517 29.0612 36.3733 29.0612 35.3142V29.3467L24.3853 27.0219C23.4295 26.5311 23.042 25.3684 23.507 24.4126C23.9978 23.4568 25.1603 23.0693 26.1162 23.5343L30.9987 25.9625L35.8812 23.5343C36.837 23.0693 37.9995 23.4309 38.4904 24.4126C38.9812 25.3684 38.5937 26.5311 37.612 27.0219L32.9362 29.3467V35.3142C32.9362 36.3733 32.0579 37.2517 30.9987 37.2517Z" fill="#2D895C"/>
<path d="M8.03256 25.7556C6.9734 25.7556 6.09506 24.8772 6.09506 23.8181V16.6881V16.6622C6.09506 16.5072 6.12087 16.3522 6.1467 16.223C6.19837 16.0164 6.2759 15.8355 6.37923 15.6547C6.45673 15.5255 6.5342 15.4222 6.63754 15.3189C6.74087 15.2155 6.87004 15.1122 6.9992 15.0347C7.05087 15.0089 7.12837 14.9572 7.18004 14.9314L12.8892 12.0897C13.845 11.6247 15.0075 11.9864 15.4984 12.9681C15.9892 13.9239 15.6017 15.0864 14.6201 15.5772L12.3467 16.7139L14.6201 17.8506C15.5759 18.3414 15.9634 19.5039 15.4984 20.4597C15.0334 21.4155 13.845 21.803 12.8892 21.338L9.9442 19.8656V23.8955C9.97004 24.903 9.11754 25.7556 8.03256 25.7556Z" fill="#424242"/>
<path d="M36.7345 9.97179C36.4503 9.97179 36.1403 9.89429 35.882 9.76512L30.9995 7.33679L26.117 9.76512C25.1611 10.256 23.9986 9.86845 23.5078 8.88679C23.017 7.93095 23.4045 6.76843 24.3861 6.27759L30.1211 3.41015C30.6636 3.12598 31.3095 3.12598 31.852 3.41015L37.587 6.27759C38.5428 6.76843 38.9303 7.93095 38.4653 8.88679C38.1295 9.58429 37.4578 9.97179 36.7345 9.97179Z" fill="#2D895C"/>
<path d="M53.9669 25.7559C52.9077 25.7559 52.0294 24.8776 52.0294 23.8184V19.7884L49.0844 21.2609C48.1285 21.7517 46.966 21.3642 46.4752 20.3826C45.9844 19.4267 46.3719 18.2643 47.3535 17.7734L49.6269 16.6368L47.3535 15.5001C46.3977 15.0092 46.0102 13.8468 46.4752 12.8909C46.9402 11.9351 48.1285 11.5476 49.0844 12.0126L54.7935 14.8542C54.8452 14.8801 54.9227 14.9059 54.9744 14.9576C55.1294 15.0351 55.2585 15.1642 55.3877 15.2934C55.4652 15.3967 55.5427 15.5001 55.6202 15.6034C55.7235 15.7842 55.801 15.9651 55.8527 16.1717C55.8785 16.3267 55.9044 16.4817 55.9044 16.6109V16.6368V23.7667C55.9044 24.9034 55.026 25.7559 53.9669 25.7559Z" fill="#424242"/>
</svg>
