<svg width="14" height="14" viewBox="0 0 14 14" fill="none" xmlns="http://www.w3.org/2000/svg">
<path d="M6.99992 0.333333C3.31659 0.333333 0.333253 3.31667 0.333253 7C0.332497 8.39952 0.772462 9.76374 1.59073 10.8991C2.409 12.0345 3.56402 12.8834 4.89192 13.3253C5.22525 13.3833 5.34992 13.1833 5.34992 13.008C5.34992 12.85 5.34125 12.3253 5.34125 11.7667C3.66659 12.0753 3.23325 11.3587 3.09992 10.9833C3.02459 10.7913 2.69992 10.2 2.41659 10.0413C2.18325 9.91667 1.84992 9.608 2.40792 9.6C2.93325 9.59133 3.30792 10.0833 3.43325 10.2833C4.03325 11.2913 4.99192 11.008 5.37459 10.8333C5.43325 10.4 5.60792 10.1087 5.79992 9.942C4.31659 9.77533 2.76659 9.2 2.76659 6.65C2.76659 5.92467 3.02459 5.32533 3.44992 4.858C3.38325 4.69133 3.14992 4.008 3.51659 3.09133C3.51659 3.09133 4.07459 2.91667 5.34992 3.77533C5.89263 3.62471 6.45336 3.5489 7.01659 3.55C7.58325 3.55 8.14992 3.62467 8.68325 3.77467C9.95792 2.908 10.5166 3.092 10.5166 3.092C10.8833 4.00867 10.6499 4.692 10.5833 4.85867C11.0079 5.32533 11.2666 5.91667 11.2666 6.65C11.2666 9.20867 9.70859 9.77533 8.22525 9.942C8.46659 10.15 8.67525 10.55 8.67525 11.1753C8.67525 12.0667 8.66659 12.7833 8.66659 13.0087C8.66659 13.1833 8.79192 13.3913 9.12525 13.3247C10.4486 12.8779 11.5985 12.0273 12.4132 10.8928C13.2278 9.75821 13.6662 8.39674 13.6666 7C13.6666 3.31667 10.6833 0.333333 6.99992 0.333333Z" fill="#4A9568"/>
</svg>
