<svg width="14" height="14" viewBox="0 0 14 14" fill="none" xmlns="http://www.w3.org/2000/svg">
<path d="M6.99992 5C6.46949 5 5.96078 5.21071 5.5857 5.58579C5.21063 5.96086 4.99992 6.46957 4.99992 7C4.99992 7.53043 5.21063 8.03914 5.5857 8.41421C5.96078 8.78929 6.46949 9 6.99992 9C7.53035 9 8.03906 8.78929 8.41413 8.41421C8.78921 8.03914 8.99992 7.53043 8.99992 7C8.99992 6.46957 8.78921 5.96086 8.41413 5.58579C8.03906 5.21071 7.53035 5 6.99992 5ZM6.99992 3.66667C7.88397 3.66667 8.73182 4.01786 9.35694 4.64298C9.98206 5.2681 10.3333 6.11594 10.3333 7C10.3333 7.88405 9.98206 8.7319 9.35694 9.35702C8.73182 9.98214 7.88397 10.3333 6.99992 10.3333C6.11586 10.3333 5.26802 9.98214 4.6429 9.35702C4.01777 8.7319 3.66659 7.88405 3.66659 7C3.66659 6.11594 4.01777 5.2681 4.6429 4.64298C5.26802 4.01786 6.11586 3.66667 6.99992 3.66667ZM11.3333 3.5C11.3333 3.72101 11.2455 3.93298 11.0892 4.08926C10.9329 4.24554 10.7209 4.33333 10.4999 4.33333C10.2789 4.33333 10.0669 4.24554 9.91066 4.08926C9.75438 3.93298 9.66659 3.72101 9.66659 3.5C9.66659 3.27899 9.75438 3.06702 9.91066 2.91074C10.0669 2.75446 10.2789 2.66667 10.4999 2.66667C10.7209 2.66667 10.9329 2.75446 11.0892 2.91074C11.2455 3.06702 11.3333 3.27899 11.3333 3.5ZM6.99992 1.66667C5.35059 1.66667 5.08125 1.67133 4.31392 1.70533C3.79125 1.73 3.44059 1.8 3.11525 1.92667C2.82592 2.03867 2.61725 2.17267 2.39525 2.39533C2.18659 2.59693 2.02615 2.84306 1.92592 3.11533C1.79925 3.442 1.72925 3.792 1.70525 4.314C1.67059 5.05 1.66659 5.30733 1.66659 7C1.66659 8.64933 1.67125 8.91867 1.70525 9.686C1.72992 10.208 1.79992 10.5593 1.92592 10.884C2.03925 11.174 2.17259 11.3827 2.39392 11.604C2.61859 11.828 2.82725 11.962 3.11392 12.0727C3.44325 12.2 3.79392 12.2707 4.31392 12.2947C5.04992 12.3293 5.30725 12.3333 6.99992 12.3333C8.64925 12.3333 8.91858 12.3287 9.68592 12.2947C10.2073 12.27 10.5586 12.2 10.8839 12.074C11.1726 11.9613 11.3826 11.8273 11.6039 11.606C11.8286 11.3813 11.9626 11.1727 12.0733 10.886C12.1999 10.5573 12.2706 10.206 12.2946 9.686C12.3293 8.95 12.3333 8.69267 12.3333 7C12.3333 5.35067 12.3286 5.08133 12.2946 4.314C12.2699 3.79267 12.1999 3.44067 12.0733 3.11533C11.9728 2.84333 11.8126 2.59731 11.6046 2.39533C11.4031 2.18656 11.1569 2.02611 10.8846 1.926C10.5579 1.79933 10.2073 1.72933 9.68592 1.70533C8.94992 1.67067 8.69259 1.66667 6.99992 1.66667ZM6.99992 0.333333C8.81125 0.333333 9.03725 0.34 9.74792 0.373333C10.4579 0.406666 10.9413 0.518 11.3666 0.683333C11.8066 0.852666 12.1773 1.082 12.5479 1.452C12.8869 1.78526 13.1492 2.18839 13.3166 2.63333C13.4813 3.058 13.5933 3.542 13.6266 4.252C13.6579 4.96267 13.6666 5.18867 13.6666 7C13.6666 8.81133 13.6599 9.03733 13.6266 9.748C13.5933 10.458 13.4813 10.9413 13.3166 11.3667C13.1497 11.8119 12.8873 12.2151 12.5479 12.548C12.2146 12.8869 11.8115 13.1492 11.3666 13.3167C10.9419 13.4813 10.4579 13.5933 9.74792 13.6267C9.03725 13.658 8.81125 13.6667 6.99992 13.6667C5.18859 13.6667 4.96259 13.66 4.25192 13.6267C3.54192 13.5933 3.05859 13.4813 2.63325 13.3167C2.18814 13.1496 1.78494 12.8873 1.45192 12.548C1.11286 12.2148 0.85054 11.8116 0.683252 11.3667C0.517919 10.942 0.406585 10.458 0.373252 9.748C0.341919 9.03733 0.333252 8.81133 0.333252 7C0.333252 5.18867 0.339919 4.96267 0.373252 4.252C0.406585 3.54133 0.517919 3.05867 0.683252 2.63333C0.850076 2.18812 1.11245 1.78488 1.45192 1.452C1.78503 1.11282 2.1882 0.850486 2.63325 0.683333C3.05859 0.518 3.54125 0.406666 4.25192 0.373333C4.96259 0.342 5.18859 0.333333 6.99992 0.333333Z" fill="#4A9568"/>
</svg>
