<svg width="96" height="110" viewBox="0 0 96 110" fill="none" xmlns="http://www.w3.org/2000/svg">
<circle cx="52.5" cy="66.5" r="43.5" fill="#2D895C"/>
<path fill-rule="evenodd" clip-rule="evenodd" d="M75.3748 56.2968C74.9747 52.794 75.4925 45.4726 75.5272 45.0277C75.7466 42.2157 74.4241 31.1114 71.9242 32.1346C67.7306 28.827 62.1451 28.0966 56.9223 27.7477C46.0736 27.0229 34.5326 28.6868 26.1555 35.9609C22.0128 39.7385 17.9796 45.2327 18.3037 50.9535C14.5398 56.3761 9.23338 63.8144 13.9231 70.1539C15.5173 72.1792 18.0509 72.9335 20.0535 74.4674C24.0816 77.7044 26.6087 82.35 30.675 85.5677C41.448 95.2127 59.7405 97.2276 70.3249 86.2572C78.5097 78.312 77.1862 66.4257 75.7466 56.2968C74.7787 49.4871 76.1554 63.1304 75.3748 56.2968Z" fill="white"/>
<path fill-rule="evenodd" clip-rule="evenodd" d="M42.4299 12.8935C45.3313 12.3102 48.3106 11.9472 51.2735 12.0565L51.5019 12.0653C53.7312 12.1541 56.5545 12.3505 58.4993 13.642C58.6112 13.5302 58.7911 13.4728 58.9543 13.5504C61.2654 14.6495 63.8073 15.4441 66.2407 16.2337C68.6629 17.0195 71.1758 17.5382 73.7146 17.7472C74.6698 17.8259 75.4872 18.8535 74.8824 19.7752C74.7385 19.9948 74.5984 20.2167 74.4588 20.4391C74.6923 20.4148 74.9257 20.3898 75.1592 20.3663C75.9274 20.2893 76.6948 21.1061 76.6493 21.8513C76.6208 22.32 76.5701 22.7832 76.495 23.2408C76.7875 23.2346 77.0784 23.2783 77.3595 23.3967C78.7825 23.9954 78.6834 25.6841 78.5769 26.9689C78.4293 28.7519 77.76 30.6404 76.5173 31.9748C77.4452 32.935 78.102 34.0817 78.4938 35.4435C78.778 36.438 78.9362 37.4972 78.8581 38.5324L78.8332 38.8423C78.7367 39.9657 78.5447 41.2094 77.7336 42.0176C77.3173 42.4343 76.8043 42.5861 76.3153 42.538C76.611 45.1269 76.8006 47.7306 76.979 50.325L77.0627 51.565C77.4607 57.5613 77.7598 63.5966 77.6816 69.6028C77.6089 75.2157 76.4957 80.6639 73.0405 85.2213C69.8935 89.3713 65.3753 92.4306 60.2639 93.5935C57.5093 94.2213 54.6972 94.2658 51.9091 93.8658C50.5577 93.6713 49.1973 93.3732 47.9147 92.9028C46.4948 92.3806 45.4744 91.612 44.519 90.4602C44.0672 89.9139 44.2847 88.7509 45.1844 88.8602C46.5452 89.0246 47.7875 89.2227 49.0921 89.6237L49.2789 89.6824C50.5783 90.0972 51.924 90.4065 53.2825 90.538C56.0651 90.8065 58.8901 90.5361 61.5557 89.6954C65.8957 88.325 69.6335 85.2713 72.0293 81.4343C74.8731 76.8861 75.1947 71.7232 75.1536 66.4935C75.1096 60.7549 74.9222 55.013 74.6164 49.2804L74.5644 48.325C74.4027 45.375 74.2465 42.4232 74.1092 39.4713C74.0664 38.5454 74.0014 37.612 73.8841 36.688C72.8118 36.062 71.8509 35.1991 71.2245 34.1343C69.9662 34.6528 68.6428 35.0269 67.4252 35.325C64.6048 36.0161 61.6767 36.1839 58.806 35.7511C58.0316 36.0698 57.2419 36.35 56.44 36.5911C56.2233 36.6869 56.0066 36.7809 55.7901 36.8732C53.8568 37.6972 51.8959 38.3954 49.8553 38.9065L49.354 39.031C48.2801 39.2948 47.1136 39.5546 45.9707 39.6361C45.7829 39.7083 45.5803 39.7695 45.359 39.8232C44.3183 40.075 43.2382 40.1546 42.1715 40.0658C41.1323 39.9787 40.3814 38.9324 40.9539 37.9528C41.3721 37.238 41.7942 36.525 42.2198 35.8139C40.7385 36.4287 39.2088 36.9398 37.6661 37.3732C36.1085 37.8102 34.5286 38.1787 32.9467 38.5176C32.101 38.6972 31.2518 38.8565 30.4079 39.0361C29.8039 39.1639 28.8764 39.2306 28.3837 39.6269C27.8393 40.062 27.685 41.0769 27.4785 41.7028C27.2071 42.5158 26.9525 43.3324 26.7201 44.1583C26.2575 45.8065 25.8783 47.4787 25.5847 49.1676C25.291 50.8583 25.0938 52.5658 24.9841 54.2787C24.8747 55.9898 24.9228 57.712 24.7464 59.4158C24.6514 60.3195 23.6777 60.7843 22.9584 60.1528C22.874 60.0787 22.7889 60.0038 22.7047 59.9281L22.5792 59.8139C21.9638 59.2583 21.3671 58.6695 20.8748 58.0065C20.7856 57.8843 20.7001 57.7565 20.6201 57.6269C20.6071 57.6269 20.596 57.6232 20.583 57.6139L20.4464 57.5115C18.9432 56.3968 16.4318 54.9434 14.966 56.7954C14.499 57.3854 14.2598 58.1366 14.0613 58.8614L13.7131 60.1585C13.4878 61.0053 13.2758 61.8567 13.1518 62.7232C12.8711 64.6639 13.0124 66.9009 14.3527 68.4565C14.888 69.0787 15.6259 69.5232 16.4491 69.6398C16.9084 69.7028 17.3619 69.625 17.8173 69.5676C18.2801 69.5102 18.726 69.6028 19.189 69.5583C19.925 69.4861 20.2465 70.3639 19.9715 70.9157C19.8228 71.212 19.6479 71.4676 19.4492 71.6843C19.6088 71.8213 19.7614 71.9695 19.9083 72.125C20.3432 72.2639 20.7333 72.562 21.0253 72.9565C21.2614 73.275 21.3839 73.6213 21.4045 73.9861C21.4303 74.0769 21.4526 74.1695 21.4733 74.2639L21.872 74.9087C21.9597 75.0501 22.0471 75.1898 22.1348 75.3269C23.1496 76.9195 24.2762 78.2676 25.6758 79.538C27.0233 80.7602 28.4859 81.8546 29.7518 83.1658L29.901 83.3214C31.0812 84.5605 32.3252 86.0604 31.8633 87.862C31.7443 88.325 31.0955 88.6583 30.6719 88.3454C29.3095 87.338 28.6234 85.7417 27.4675 84.5195C26.2778 83.2602 24.96 82.1287 23.7669 80.8732C22.6385 79.688 21.7482 78.3454 21.0774 76.8676C20.8095 77.162 20.4194 77.3713 19.8785 77.4528C18.9492 77.5917 18.0829 77.0491 17.6779 76.2472C17.4175 76.362 17.1518 76.4658 16.884 76.5472C15.4751 76.9769 14.5887 75.4157 15.1203 74.262C15.4045 73.6435 15.7595 73.1065 16.2002 72.6546C14.8227 72.4658 13.4213 71.7565 12.5161 70.8713C10.245 68.6472 9.93274 65.3046 10.4439 62.3324C10.7152 60.7565 11.1834 59.162 11.7914 57.6824C11.8972 57.425 12.0107 57.1658 12.1351 56.9102C12.0663 56.9083 11.9957 56.8787 11.9511 56.8213C11.5403 56.262 11.0405 55.8046 10.7355 55.1787C10.4548 54.6046 10.1428 54.0232 9.9214 53.425C9.46621 52.2009 9.24317 50.8195 9.09448 49.525C8.7878 46.875 8.90657 44.2417 9.3138 41.6083C10.0069 37.1232 11.6812 32.8309 14.1479 29.0646C14.0136 28.9943 13.8848 28.9094 13.7649 28.8091L13.7057 28.7576L13.6094 28.6709C12.9055 28.0363 12.9663 26.8469 13.6094 26.2041L13.8125 26.0012C14.0697 25.7467 14.2915 25.545 14.7069 25.2678C14.7683 25.2269 14.8309 25.1883 14.8943 25.1524C14.6768 24.752 14.6014 24.2839 14.7529 23.7674C15.2807 21.9682 17.8792 22.0319 19.5261 22.8165C21.3482 21.1963 23.3686 19.7898 25.5585 18.6509C30.7741 15.9398 36.6715 14.0491 42.4299 12.8935ZM15.4698 60.2824C16.4437 59.9658 17.7374 60.6306 18.6128 61.0306C19.7225 61.538 20.6667 62.288 21.5811 63.0806C22.0365 63.4769 22.1181 64.125 22.0049 64.6787C21.9936 64.7343 21.9826 64.7917 21.9694 64.8491C21.8486 65.4398 21.1869 65.9046 20.6014 65.888C19.3766 65.8546 18.7931 64.8009 18.0996 63.9083C18.018 64.0528 17.9158 64.1861 17.7892 64.2861L17.7038 64.3528C17.416 64.5711 17.0988 64.7455 16.7186 64.7287C16.4491 64.7157 16.191 64.6472 15.9529 64.5232C15.3581 64.2102 15.0962 63.4435 15.2577 62.8195C15.3581 62.4269 15.5886 62.1195 15.8897 61.9065L15.7774 61.83C15.5373 61.6635 15.3182 61.4879 15.1476 61.2289L15.109 61.1676H15.1239C14.938 60.8491 15.059 60.4158 15.4698 60.2824Z" fill="black"/>
<path fill-rule="evenodd" clip-rule="evenodd" d="M53.4631 80.9542C52.2652 80.4672 51.1963 79.6549 50.4149 78.6172C50.1432 78.2565 50.0728 77.8756 50.1298 77.5271C50.1939 77.1354 50.4265 76.7803 50.7437 76.5421C51.0618 76.3032 51.4598 76.1854 51.8446 76.2455C52.179 76.2977 52.5118 76.4801 52.7752 76.8584L52.8303 76.9341C53.2949 77.5604 53.9002 78.0743 54.59 78.4055C55.2549 78.7248 55.9984 78.8738 56.7679 78.7871C58.2334 78.6222 59.2435 77.8324 60.3171 76.7599C60.4502 76.6245 60.5833 76.4848 60.7171 76.3429C60.8017 76.2143 60.9189 76.1316 61.0491 76.0882C61.1937 76.0401 61.3572 76.0428 61.507 76.0949C61.6515 76.1451 61.7806 76.2403 61.8672 76.367C61.9495 76.4875 61.9962 76.6362 61.9811 76.8073C61.8828 77.9188 61.2996 78.9108 60.4713 79.6897C59.5514 80.5547 58.3319 81.1532 57.1838 81.3631C55.919 81.5943 54.6301 81.4286 53.4631 80.9542ZM57.7805 63.8074C59.1262 64.6225 61.1765 66.5232 59.7289 68.5439C58.0249 70.3256 55.5716 68.2827 54.3626 67.3588C53.2416 66.6428 51.982 68.4844 53.0221 69.3204C61.7582 75.7657 65.3035 64.0206 58.4611 62.8491C57.7078 62.72 57.4279 63.5553 57.7805 63.8074ZM42.1254 56.31C42.274 54.4709 45.0848 54.0533 45.3643 55.8731C45.6147 57.5033 45.32 59.0008 44.5831 60.4685C43.879 61.8706 42.1094 61.2165 41.9756 59.9397C41.7962 58.2282 42.0329 57.454 42.1254 56.31ZM63.5208 55.4958C63.9127 54.9844 64.4785 54.6353 65.1564 54.8326C67.2743 55.4493 66.65 58.4455 65.9062 59.904C65.5021 60.696 64.1957 60.8968 63.6053 60.1995C62.643 59.0623 62.1822 56.7912 63.4055 55.6711C63.4387 55.6132 63.4756 55.5548 63.5208 55.4958ZM44.5533 48.2629L44.8878 48.2045C45.9228 48.0262 47.2096 47.8548 47.9418 48.6839C48.3301 49.1236 48.4637 49.9408 47.9418 50.3617C47.0237 51.1022 46.0087 50.8152 44.9084 50.8779C44.0018 50.9298 43.1304 51.0793 42.257 51.3281C40.341 51.8738 38.7798 52.87 37.1433 53.9638C36.9286 54.1073 36.7094 53.8337 36.8119 53.6336C37.7565 51.7898 39.5872 50.2752 41.4209 49.352C42.3995 48.8592 43.4705 48.4504 44.5533 48.2629ZM61.5902 47.437L61.8462 47.4892C64.6328 48.0696 68.2532 49.2291 69.5728 51.9566C69.6231 52.3422 69.57 52.4249 69.5268 52.4789L69.5124 52.4969C69.4768 52.543 69.4484 52.6066 69.2806 52.6591C69.2341 52.648 69.187 52.6363 69.1395 52.6239C68.5347 52.4659 68.0561 52.2483 67.5928 52.0225L67.0904 51.7759C66.5076 51.4911 65.9197 51.2167 65.2966 51.0142C63.9668 50.5819 62.599 50.2775 61.2101 50.1149C60.909 50.0797 60.6191 49.9784 60.3904 49.8049C60.1733 49.6402 60.0075 49.4122 59.9319 49.1091C59.8339 48.7168 59.8621 48.4198 60.0733 48.0659C60.2321 47.8001 60.4593 47.6159 60.7203 47.5101C60.9863 47.4023 61.2891 47.3769 61.5902 47.437Z" fill="black"/>
<path fill-rule="evenodd" clip-rule="evenodd" d="M73.6435 57.9521C72.0585 68.6548 60.9938 69.8384 59.0278 59.2133C59.3434 59.0753 59.5703 58.8038 59.5229 58.2767C59.5118 55.9612 60.2318 53.514 62.3243 52.2263C64.4865 50.8976 67.0171 50.7658 69.5193 50.7993C74.2944 50.6858 74.194 54.6701 73.6435 57.9521ZM57.2957 53.2974C55.7971 53.2343 53.9011 53.2871 52.5587 54.1986C52.1896 53.2065 51.2306 52.1471 50.2617 51.5807C53.8631 51.6859 57.5702 51.3321 61.1984 51.0574C60.3299 51.6484 59.5219 52.5363 58.9968 53.5628C58.5095 53.3034 57.8116 53.3276 57.2957 53.2974ZM50.6902 59.0868C46.5347 73.3655 36.1621 67.1419 35.0313 65.312C32.9915 62.2839 32.6078 54.9228 34.3845 52.9547C36.9279 51.1749 40.5284 51.633 43.5329 51.5893C49.0526 51.6637 52.9728 53.312 50.6902 59.0868ZM78.5501 52.5195C77.4211 52.3722 76.2146 52.3425 75.1649 52.8387C74.8417 51.4673 73.8271 50.3209 72.6814 49.8164C72.5428 49.6428 72.5635 49.5495 72.0899 49.5755C69.1813 48.7029 65.9266 49.1646 63.1316 50.0595C58.7173 50.4306 54.086 50.7232 49.6346 51.2345C45.4647 49.3651 32.8806 49.0911 32.0986 53.6987C31.1149 53.5518 29.4396 52.7789 28.613 53.8273C22.5496 52.8012 16.2844 54.2273 10.1948 54.8624C8.66194 55.1442 7.87242 58.181 9.6124 58.1395C10.5906 57.8744 9.58231 56.2485 10.8995 56.1262C16.775 55.4856 22.522 54.5768 28.4577 54.4704C28.2512 55.4936 32.3835 55.5601 32.4446 54.9627C32.4534 54.9671 32.4627 54.9701 32.4717 54.9741C31.4505 58.773 32.3722 64.2401 34.2176 66.5957C36.8032 69.6803 43.2945 70.5652 46.1728 68.5806C49.8857 66.7489 53.7482 57.5543 52.6632 54.4996C54.6323 53.8766 56.579 54.0636 58.6225 54.381C58.1547 55.7002 57.347 58.9477 58.509 59.2294C58.2957 65.677 64.1738 69.7 69.5926 67.0551C74.2828 64.8573 75.923 57.9005 75.3491 53.6779C75.933 54.8042 80.8354 53.578 78.5501 52.5195Z" fill="black"/>
</svg>
