<svg width="62" height="62" viewBox="0 0 62 62" fill="none" xmlns="http://www.w3.org/2000/svg">
<path d="M35.5079 8.74694L40.0851 17.9702C40.7093 19.2279 42.3737 20.4856 43.7607 20.6952L52.0482 22.0927C57.3536 23.001 58.6019 26.844 54.7876 30.687L48.3379 37.1852C47.263 38.2683 46.6388 40.3994 46.9856 41.9366L48.8234 50.0069C50.2798 56.3654 46.9162 58.8458 41.3334 55.5269L33.5661 50.8803C32.1443 50.0419 29.8557 50.0419 28.434 50.8803L20.6665 55.5269C15.0837 58.8458 11.7202 56.3654 13.1765 50.0069L15.0145 41.9366C15.3612 40.4343 14.737 38.3032 13.6621 37.1852L7.21241 30.687C3.39807 26.844 4.64633 22.9661 9.95172 22.0927L18.2393 20.6952C19.6263 20.4507 21.2907 19.2279 21.9149 17.9702L26.4922 8.74694C28.9542 3.75102 33.0459 3.75102 35.5079 8.74694Z" fill="#7DCA9C"/>
</svg>
